<svg width="92" height="82" viewBox="0 0 92 82" fill="none" xmlns="http://www.w3.org/2000/svg">
<g opacity="0.3">
<mask id="mask0_1_11" style="mask-type:alpha" maskUnits="userSpaceOnUse" x="6" y="4" width="8" height="8">
<path d="M9.90962 11.9773C12.0689 11.9773 13.8193 10.1915 13.8193 7.98865C13.8193 5.78577 12.0689 4 9.90962 4C7.7504 4 6 5.78577 6 7.98865C6 10.1915 7.7504 11.9773 9.90962 11.9773Z" fill="url(#paint0_linear_1_11)"/>
</mask>
<g mask="url(#mask0_1_11)">
<path d="M9.90962 11.9773C12.0689 11.9773 13.8193 10.1915 13.8193 7.98865C13.8193 5.78577 12.0689 4 9.90962 4C7.7504 4 6 5.78577 6 7.98865C6 10.1915 7.7504 11.9773 9.90962 11.9773Z" fill="url(#paint1_linear_1_11)"/>
</g>
<mask id="mask1_1_11" style="mask-type:alpha" maskUnits="userSpaceOnUse" x="28" y="4" width="9" height="8">
<path d="M32.5525 11.9773C34.7117 11.9773 36.4621 10.1915 36.4621 7.98865C36.4621 5.78577 34.7117 4 32.5525 4C30.3933 4 28.6429 5.78577 28.6429 7.98865C28.6429 10.1915 30.3933 11.9773 32.5525 11.9773Z" fill="url(#paint2_linear_1_11)"/>
</mask>
<g mask="url(#mask1_1_11)">
<path d="M32.5529 11.9773C34.7121 11.9773 36.4625 10.1915 36.4625 7.98865C36.4625 5.78577 34.7121 4 32.5529 4C30.3937 4 28.6432 5.78577 28.6432 7.98865C28.6432 10.1915 30.3937 11.9773 32.5529 11.9773Z" fill="url(#paint3_linear_1_11)"/>
</g>
<mask id="mask2_1_11" style="mask-type:alpha" maskUnits="userSpaceOnUse" x="51" y="4" width="9" height="8">
<path d="M55.1953 11.9773C57.3546 11.9773 59.105 10.1915 59.105 7.98865C59.105 5.78577 57.3546 4 55.1953 4C53.0361 4 51.2857 5.78577 51.2857 7.98865C51.2857 10.1915 53.0361 11.9773 55.1953 11.9773Z" fill="url(#paint4_linear_1_11)"/>
</mask>
<g mask="url(#mask2_1_11)">
<path d="M55.196 11.9773C57.3552 11.9773 59.1056 10.1915 59.1056 7.98865C59.1056 5.78577 57.3552 4 55.196 4C53.0368 4 51.2864 5.78577 51.2864 7.98865C51.2864 10.1915 53.0368 11.9773 55.196 11.9773Z" fill="url(#paint5_linear_1_11)"/>
</g>
<mask id="mask3_1_11" style="mask-type:alpha" maskUnits="userSpaceOnUse" x="73" y="4" width="9" height="8">
<path d="M77.8382 11.9773C79.9974 11.9773 81.7478 10.1915 81.7478 7.98865C81.7478 5.78577 79.9974 4 77.8382 4C75.6789 4 73.9285 5.78577 73.9285 7.98865C73.9285 10.1915 75.6789 11.9773 77.8382 11.9773Z" fill="url(#paint6_linear_1_11)"/>
</mask>
<g mask="url(#mask3_1_11)">
<path d="M77.8388 11.9773C79.998 11.9773 81.7484 10.1915 81.7484 7.98865C81.7484 5.78577 79.998 4 77.8388 4C75.6795 4 73.9291 5.78577 73.9291 7.98865C73.9291 10.1915 75.6795 11.9773 77.8388 11.9773Z" fill="url(#paint7_linear_1_11)"/>
</g>
<mask id="mask4_1_11" style="mask-type:alpha" maskUnits="userSpaceOnUse" x="6" y="24" width="8" height="9">
<path d="M9.90962 32.0037C12.0689 32.0037 13.8193 30.2179 13.8193 28.015C13.8193 25.8122 12.0689 24.0264 9.90962 24.0264C7.7504 24.0264 6 25.8122 6 28.015C6 30.2179 7.7504 32.0037 9.90962 32.0037Z" fill="url(#paint8_linear_1_11)"/>
</mask>
<g mask="url(#mask4_1_11)">
<path d="M9.90962 32.0037C12.0689 32.0037 13.8193 30.218 13.8193 28.0151C13.8193 25.8122 12.0689 24.0265 9.90962 24.0265C7.7504 24.0265 6 25.8122 6 28.0151C6 30.218 7.7504 32.0037 9.90962 32.0037Z" fill="url(#paint9_linear_1_11)"/>
</g>
<mask id="mask5_1_11" style="mask-type:alpha" maskUnits="userSpaceOnUse" x="28" y="24" width="9" height="9">
<path d="M32.5525 32.0038C34.7117 32.0038 36.4621 30.218 36.4621 28.0151C36.4621 25.8123 34.7117 24.0265 32.5525 24.0265C30.3933 24.0265 28.6429 25.8123 28.6429 28.0151C28.6429 30.218 30.3933 32.0038 32.5525 32.0038Z" fill="url(#paint10_linear_1_11)"/>
</mask>
<g mask="url(#mask5_1_11)">
<path d="M32.5529 32.0037C34.7121 32.0037 36.4625 30.2179 36.4625 28.0151C36.4625 25.8122 34.7121 24.0264 32.5529 24.0264C30.3937 24.0264 28.6432 25.8122 28.6432 28.0151C28.6432 30.2179 30.3937 32.0037 32.5529 32.0037Z" fill="url(#paint11_linear_1_11)"/>
</g>
<mask id="mask6_1_11" style="mask-type:alpha" maskUnits="userSpaceOnUse" x="51" y="24" width="9" height="9">
<path d="M55.1953 32.0038C57.3546 32.0038 59.105 30.218 59.105 28.0151C59.105 25.8123 57.3546 24.0265 55.1953 24.0265C53.0361 24.0265 51.2857 25.8123 51.2857 28.0151C51.2857 30.218 53.0361 32.0038 55.1953 32.0038Z" fill="url(#paint12_linear_1_11)"/>
</mask>
<g mask="url(#mask6_1_11)">
<path d="M55.196 32.0037C57.3552 32.0037 59.1056 30.2179 59.1056 28.0151C59.1056 25.8122 57.3552 24.0264 55.196 24.0264C53.0368 24.0264 51.2864 25.8122 51.2864 28.0151C51.2864 30.2179 53.0368 32.0037 55.196 32.0037Z" fill="url(#paint13_linear_1_11)"/>
</g>
<mask id="mask7_1_11" style="mask-type:alpha" maskUnits="userSpaceOnUse" x="73" y="24" width="9" height="9">
<path d="M77.8382 32.0038C79.9974 32.0038 81.7478 30.218 81.7478 28.0151C81.7478 25.8123 79.9974 24.0265 77.8382 24.0265C75.6789 24.0265 73.9285 25.8123 73.9285 28.0151C73.9285 30.218 75.6789 32.0038 77.8382 32.0038Z" fill="url(#paint14_linear_1_11)"/>
</mask>
<g mask="url(#mask7_1_11)">
<path d="M77.8388 32.0037C79.998 32.0037 81.7484 30.2179 81.7484 28.0151C81.7484 25.8122 79.998 24.0264 77.8388 24.0264C75.6795 24.0264 73.9291 25.8122 73.9291 28.0151C73.9291 30.2179 75.6795 32.0037 77.8388 32.0037Z" fill="url(#paint15_linear_1_11)"/>
</g>
<mask id="mask8_1_11" style="mask-type:alpha" maskUnits="userSpaceOnUse" x="6" y="44" width="8" height="8">
<path d="M9.90962 51.9887C12.0689 51.9887 13.8193 50.2029 13.8193 48C13.8193 45.7971 12.0689 44.0113 9.90962 44.0113C7.7504 44.0113 6 45.7971 6 48C6 50.2029 7.7504 51.9887 9.90962 51.9887Z" fill="url(#paint16_linear_1_11)"/>
</mask>
<g mask="url(#mask8_1_11)">
<path d="M9.90962 51.9888C12.0689 51.9888 13.8193 50.203 13.8193 48.0001C13.8193 45.7972 12.0689 44.0114 9.90962 44.0114C7.7504 44.0114 6 45.7972 6 48.0001C6 50.203 7.7504 51.9888 9.90962 51.9888Z" fill="url(#paint17_linear_1_11)"/>
</g>
<mask id="mask9_1_11" style="mask-type:alpha" maskUnits="userSpaceOnUse" x="28" y="44" width="9" height="8">
<path d="M32.5525 51.9889C34.7117 51.9889 36.4621 50.2032 36.4621 48.0003C36.4621 45.7974 34.7117 44.0116 32.5525 44.0116C30.3933 44.0116 28.6429 45.7974 28.6429 48.0003C28.6429 50.2032 30.3933 51.9889 32.5525 51.9889Z" fill="url(#paint18_linear_1_11)"/>
</mask>
<g mask="url(#mask9_1_11)">
<path d="M32.5529 51.9888C34.7121 51.9888 36.4625 50.203 36.4625 48.0001C36.4625 45.7972 34.7121 44.0114 32.5529 44.0114C30.3937 44.0114 28.6432 45.7972 28.6432 48.0001C28.6432 50.203 30.3937 51.9888 32.5529 51.9888Z" fill="url(#paint19_linear_1_11)"/>
</g>
<mask id="mask10_1_11" style="mask-type:alpha" maskUnits="userSpaceOnUse" x="51" y="44" width="9" height="8">
<path d="M55.1953 51.9889C57.3546 51.9889 59.105 50.2032 59.105 48.0003C59.105 45.7974 57.3546 44.0116 55.1953 44.0116C53.0361 44.0116 51.2857 45.7974 51.2857 48.0003C51.2857 50.2032 53.0361 51.9889 55.1953 51.9889Z" fill="url(#paint20_linear_1_11)"/>
</mask>
<g mask="url(#mask10_1_11)">
<path d="M55.196 51.9888C57.3552 51.9888 59.1056 50.203 59.1056 48.0001C59.1056 45.7972 57.3552 44.0114 55.196 44.0114C53.0368 44.0114 51.2864 45.7972 51.2864 48.0001C51.2864 50.203 53.0368 51.9888 55.196 51.9888Z" fill="url(#paint21_linear_1_11)"/>
</g>
<mask id="mask11_1_11" style="mask-type:alpha" maskUnits="userSpaceOnUse" x="73" y="44" width="9" height="8">
<path d="M77.8382 51.9889C79.9974 51.9889 81.7478 50.2032 81.7478 48.0003C81.7478 45.7974 79.9974 44.0116 77.8382 44.0116C75.6789 44.0116 73.9285 45.7974 73.9285 48.0003C73.9285 50.2032 75.6789 51.9889 77.8382 51.9889Z" fill="url(#paint22_linear_1_11)"/>
</mask>
<g mask="url(#mask11_1_11)">
<path d="M77.8388 51.9888C79.998 51.9888 81.7484 50.203 81.7484 48.0001C81.7484 45.7972 79.998 44.0114 77.8388 44.0114C75.6795 44.0114 73.9291 45.7972 73.9291 48.0001C73.9291 50.203 75.6795 51.9888 77.8388 51.9888Z" fill="url(#paint23_linear_1_11)"/>
</g>
<mask id="mask12_1_11" style="mask-type:alpha" maskUnits="userSpaceOnUse" x="6" y="64" width="8" height="9">
<path d="M9.90962 72.0155C12.0689 72.0155 13.8193 70.2296 13.8193 68.0268C13.8193 65.8239 12.0689 64.0381 9.90962 64.0381C7.7504 64.0381 6 65.8239 6 68.0268C6 70.2296 7.7504 72.0155 9.90962 72.0155Z" fill="url(#paint24_linear_1_11)"/>
</mask>
<g mask="url(#mask12_1_11)">
<path d="M9.90962 72.0152C12.0689 72.0152 13.8193 70.2294 13.8193 68.0265C13.8193 65.8236 12.0689 64.0379 9.90962 64.0379C7.7504 64.0379 6 65.8236 6 68.0265C6 70.2294 7.7504 72.0152 9.90962 72.0152Z" fill="url(#paint25_linear_1_11)"/>
</g>
<mask id="mask13_1_11" style="mask-type:alpha" maskUnits="userSpaceOnUse" x="28" y="64" width="9" height="9">
<path d="M32.5525 72.0155C34.7117 72.0155 36.4621 70.2296 36.4621 68.0268C36.4621 65.8239 34.7117 64.0381 32.5525 64.0381C30.3933 64.0381 28.6429 65.8239 28.6429 68.0268C28.6429 70.2296 30.3933 72.0155 32.5525 72.0155Z" fill="url(#paint26_linear_1_11)"/>
</mask>
<g mask="url(#mask13_1_11)">
<path d="M32.5529 72.0152C34.7121 72.0152 36.4625 70.2294 36.4625 68.0265C36.4625 65.8236 34.7121 64.0379 32.5529 64.0379C30.3937 64.0379 28.6432 65.8236 28.6432 68.0265C28.6432 70.2294 30.3937 72.0152 32.5529 72.0152Z" fill="url(#paint27_linear_1_11)"/>
</g>
<mask id="mask14_1_11" style="mask-type:alpha" maskUnits="userSpaceOnUse" x="51" y="64" width="9" height="9">
<path d="M55.1953 72.0155C57.3546 72.0155 59.105 70.2296 59.105 68.0268C59.105 65.8239 57.3546 64.0381 55.1953 64.0381C53.0361 64.0381 51.2857 65.8239 51.2857 68.0268C51.2857 70.2296 53.0361 72.0155 55.1953 72.0155Z" fill="url(#paint28_linear_1_11)"/>
</mask>
<g mask="url(#mask14_1_11)">
<path d="M55.196 72.0152C57.3552 72.0152 59.1056 70.2294 59.1056 68.0265C59.1056 65.8236 57.3552 64.0379 55.196 64.0379C53.0368 64.0379 51.2864 65.8236 51.2864 68.0265C51.2864 70.2294 53.0368 72.0152 55.196 72.0152Z" fill="url(#paint29_linear_1_11)"/>
</g>
<mask id="mask15_1_11" style="mask-type:alpha" maskUnits="userSpaceOnUse" x="73" y="64" width="9" height="9">
<path d="M77.8382 72.0155C79.9974 72.0155 81.7478 70.2296 81.7478 68.0268C81.7478 65.8239 79.9974 64.0381 77.8382 64.0381C75.6789 64.0381 73.9285 65.8239 73.9285 68.0268C73.9285 70.2296 75.6789 72.0155 77.8382 72.0155Z" fill="url(#paint30_linear_1_11)"/>
</mask>
<g mask="url(#mask15_1_11)">
<path d="M77.8388 72.0152C79.998 72.0152 81.7484 70.2294 81.7484 68.0265C81.7484 65.8236 79.998 64.0379 77.8388 64.0379C75.6795 64.0379 73.9291 65.8236 73.9291 68.0265C73.9291 70.2294 75.6795 72.0152 77.8388 72.0152Z" fill="url(#paint31_linear_1_11)"/>
</g>
</g>
<defs>
<linearGradient id="paint0_linear_1_11" x1="44.076" y1="96.4707" x2="-11.486" y2="-41.7764" gradientUnits="userSpaceOnUse">
<stop stop-color="#FFA434"/>
<stop offset="1" stop-color="#FFA434"/>
</linearGradient>
<linearGradient id="paint1_linear_1_11" x1="44.076" y1="96.4707" x2="-11.486" y2="-41.7764" gradientUnits="userSpaceOnUse">
<stop stop-color="#FFA434"/>
<stop offset="1" stop-color="#FFA434"/>
</linearGradient>
<linearGradient id="paint2_linear_1_11" x1="66.7189" y1="96.4707" x2="11.1569" y2="-41.7764" gradientUnits="userSpaceOnUse">
<stop stop-color="#FFA434"/>
<stop offset="1" stop-color="#FFA434"/>
</linearGradient>
<linearGradient id="paint3_linear_1_11" x1="66.7193" y1="96.4707" x2="11.1573" y2="-41.7764" gradientUnits="userSpaceOnUse">
<stop stop-color="#FFA434"/>
<stop offset="1" stop-color="#FFA434"/>
</linearGradient>
<linearGradient id="paint4_linear_1_11" x1="89.3617" y1="96.4707" x2="33.7998" y2="-41.7764" gradientUnits="userSpaceOnUse">
<stop stop-color="#FFA434"/>
<stop offset="1" stop-color="#FFA434"/>
</linearGradient>
<linearGradient id="paint5_linear_1_11" x1="89.3624" y1="96.4707" x2="33.8004" y2="-41.7764" gradientUnits="userSpaceOnUse">
<stop stop-color="#FFA434"/>
<stop offset="1" stop-color="#FFA434"/>
</linearGradient>
<linearGradient id="paint6_linear_1_11" x1="112.005" y1="96.4707" x2="56.4426" y2="-41.7764" gradientUnits="userSpaceOnUse">
<stop stop-color="#FFA434"/>
<stop offset="1" stop-color="#FFA434"/>
</linearGradient>
<linearGradient id="paint7_linear_1_11" x1="112.005" y1="96.4707" x2="56.4432" y2="-41.7764" gradientUnits="userSpaceOnUse">
<stop stop-color="#FFA434"/>
<stop offset="1" stop-color="#FFA434"/>
</linearGradient>
<linearGradient id="paint8_linear_1_11" x1="44.076" y1="116.496" x2="-11.4851" y2="-21.7499" gradientUnits="userSpaceOnUse">
<stop stop-color="#FFA434"/>
<stop offset="1" stop-color="#FFA434"/>
</linearGradient>
<linearGradient id="paint9_linear_1_11" x1="44.076" y1="116.496" x2="-11.4851" y2="-21.7499" gradientUnits="userSpaceOnUse">
<stop stop-color="#FFA434"/>
<stop offset="1" stop-color="#FFA434"/>
</linearGradient>
<linearGradient id="paint10_linear_1_11" x1="66.7189" y1="116.496" x2="11.1579" y2="-21.7499" gradientUnits="userSpaceOnUse">
<stop stop-color="#FFA434"/>
<stop offset="1" stop-color="#FFA434"/>
</linearGradient>
<linearGradient id="paint11_linear_1_11" x1="66.7193" y1="116.496" x2="11.1582" y2="-21.7499" gradientUnits="userSpaceOnUse">
<stop stop-color="#FFA434"/>
<stop offset="1" stop-color="#FFA434"/>
</linearGradient>
<linearGradient id="paint12_linear_1_11" x1="89.3617" y1="116.496" x2="33.8007" y2="-21.7499" gradientUnits="userSpaceOnUse">
<stop stop-color="#FFA434"/>
<stop offset="1" stop-color="#FFA434"/>
</linearGradient>
<linearGradient id="paint13_linear_1_11" x1="89.3624" y1="116.496" x2="33.8014" y2="-21.7499" gradientUnits="userSpaceOnUse">
<stop stop-color="#FFA434"/>
<stop offset="1" stop-color="#FFA434"/>
</linearGradient>
<linearGradient id="paint14_linear_1_11" x1="112.005" y1="116.496" x2="56.4435" y2="-21.7499" gradientUnits="userSpaceOnUse">
<stop stop-color="#FFA434"/>
<stop offset="1" stop-color="#FFA434"/>
</linearGradient>
<linearGradient id="paint15_linear_1_11" x1="112.005" y1="116.496" x2="56.4441" y2="-21.7499" gradientUnits="userSpaceOnUse">
<stop stop-color="#FFA434"/>
<stop offset="1" stop-color="#FFA434"/>
</linearGradient>
<linearGradient id="paint16_linear_1_11" x1="44.076" y1="136.482" x2="-11.486" y2="-1.76507" gradientUnits="userSpaceOnUse">
<stop stop-color="#FFA434"/>
<stop offset="1" stop-color="#FFA434"/>
</linearGradient>
<linearGradient id="paint17_linear_1_11" x1="44.076" y1="136.482" x2="-11.486" y2="-1.76498" gradientUnits="userSpaceOnUse">
<stop stop-color="#FFA434"/>
<stop offset="1" stop-color="#FFA434"/>
</linearGradient>
<linearGradient id="paint18_linear_1_11" x1="66.7189" y1="136.482" x2="11.1569" y2="-1.76484" gradientUnits="userSpaceOnUse">
<stop stop-color="#FFA434"/>
<stop offset="1" stop-color="#FFA434"/>
</linearGradient>
<linearGradient id="paint19_linear_1_11" x1="66.7193" y1="136.482" x2="11.1573" y2="-1.76502" gradientUnits="userSpaceOnUse">
<stop stop-color="#FFA434"/>
<stop offset="1" stop-color="#FFA434"/>
</linearGradient>
<linearGradient id="paint20_linear_1_11" x1="89.3617" y1="136.482" x2="33.7998" y2="-1.76484" gradientUnits="userSpaceOnUse">
<stop stop-color="#FFA434"/>
<stop offset="1" stop-color="#FFA434"/>
</linearGradient>
<linearGradient id="paint21_linear_1_11" x1="89.3624" y1="136.482" x2="33.8004" y2="-1.76502" gradientUnits="userSpaceOnUse">
<stop stop-color="#FFA434"/>
<stop offset="1" stop-color="#FFA434"/>
</linearGradient>
<linearGradient id="paint22_linear_1_11" x1="112.005" y1="136.482" x2="56.4426" y2="-1.76484" gradientUnits="userSpaceOnUse">
<stop stop-color="#FFA434"/>
<stop offset="1" stop-color="#FFA434"/>
</linearGradient>
<linearGradient id="paint23_linear_1_11" x1="112.005" y1="136.482" x2="56.4432" y2="-1.76502" gradientUnits="userSpaceOnUse">
<stop stop-color="#FFA434"/>
<stop offset="1" stop-color="#FFA434"/>
</linearGradient>
<linearGradient id="paint24_linear_1_11" x1="44.076" y1="156.509" x2="-11.486" y2="18.2617" gradientUnits="userSpaceOnUse">
<stop stop-color="#FFA434"/>
<stop offset="1" stop-color="#FFA434"/>
</linearGradient>
<linearGradient id="paint25_linear_1_11" x1="44.076" y1="156.509" x2="-11.486" y2="18.2615" gradientUnits="userSpaceOnUse">
<stop stop-color="#FFA434"/>
<stop offset="1" stop-color="#FFA434"/>
</linearGradient>
<linearGradient id="paint26_linear_1_11" x1="66.7189" y1="156.509" x2="11.1569" y2="18.2617" gradientUnits="userSpaceOnUse">
<stop stop-color="#FFA434"/>
<stop offset="1" stop-color="#FFA434"/>
</linearGradient>
<linearGradient id="paint27_linear_1_11" x1="66.7193" y1="156.509" x2="11.1573" y2="18.2614" gradientUnits="userSpaceOnUse">
<stop stop-color="#FFA434"/>
<stop offset="1" stop-color="#FFA434"/>
</linearGradient>
<linearGradient id="paint28_linear_1_11" x1="89.3617" y1="156.509" x2="33.7998" y2="18.2617" gradientUnits="userSpaceOnUse">
<stop stop-color="#FFA434"/>
<stop offset="1" stop-color="#FFA434"/>
</linearGradient>
<linearGradient id="paint29_linear_1_11" x1="89.3624" y1="156.509" x2="33.8004" y2="18.2614" gradientUnits="userSpaceOnUse">
<stop stop-color="#FFA434"/>
<stop offset="1" stop-color="#FFA434"/>
</linearGradient>
<linearGradient id="paint30_linear_1_11" x1="112.005" y1="156.509" x2="56.4426" y2="18.2617" gradientUnits="userSpaceOnUse">
<stop stop-color="#FFA434"/>
<stop offset="1" stop-color="#FFA434"/>
</linearGradient>
<linearGradient id="paint31_linear_1_11" x1="112.005" y1="156.509" x2="56.4432" y2="18.2614" gradientUnits="userSpaceOnUse">
<stop stop-color="#FFA434"/>
<stop offset="1" stop-color="#FFA434"/>
</linearGradient>
</defs>
</svg>
